# xmcd
#
# Track frame offsets: 
#        150
#        16842
#        30962
#        50792
#        66147
#        84580
#        101975
#        116347
#        130935
#        146710
#        161705
#        178482
#
# Disc length: 2573 seconds
#
# Revision: 3
# Processed by: cddbd v1.5.2PL0 Copyright (c) Steve Scherf et al.
# Submitted via: ExactAudioCopy v1.1
#
DISCID=a80a0b0c
DTITLE=Various Artist - Today's New Country Favorites
DYEAR=2000
DGENRE=Country
TTITLE0=Mark Collie - Even the Man in the Moon Is Cryin'
TTITLE1=McBride and The Ride - Love On the Loose Heart On the Run
TTITLE2=K.T. Oslin - Hey Bobby
TTITLE3=Lonestar - Tequila Talkin'
TTITLE4=Keith Whitley - It Ain't Nothin'
TTITLE5=Steve Wariner - I Got Dreams
TTITLE6=Aaron Tippin - I Wouldn't Have It Any Other Way
TTITLE7=Lionel Cartwright - My Heart Is Set on You
TTITLE8=Doug Supernaw - Reno
TTITLE9=Lorrie Morgan - I Didn't Know My Own Strength
TTITLE10=Mark Chesnutt - Gonna Get a Life
TTITLE11=Marty Stuart - Tempted
EXTD=YEAR: 1999 ID3G:   2
EXTT0=
EXTT1=
EXTT2=
EXTT3=
EXTT4=
EXTT5=
EXTT6=
EXTT7=
EXTT8=
EXTT9=
EXTT10=
EXTT11=
PLAYORDER=
